<?xml version="1.0" standalone="no"?>
<!DOCTYPE svg PUBLIC "-//W3C//DTD SVG 20010904//EN"
 "http://www.w3.org/TR/2001/REC-SVG-20010904/DTD/svg10.dtd">
<svg version="1.0" xmlns="http://www.w3.org/2000/svg"
 width="700.000000pt" height="700.000000pt" viewBox="0 0 700.000000 700.000000"
 preserveAspectRatio="xMidYMid meet">
<metadata>
Created by potrace 1.14, written by Peter Selinger 2001-2017
</metadata>
<g transform="translate(0.000000,700.000000) scale(0.100000,-0.100000)"
fill="#000000" stroke="none">
<path d="M3400 6899 c-52 -45 -115 -98 -140 -119 -68 -58 -458 -387 -514 -434
-27 -22 -54 -46 -60 -51 -9 -8 -131 -112 -351 -297 -96 -80 -515 -435 -535
-451 -14 -12 -52 -44 -85 -72 -33 -27 -78 -65 -101 -85 -22 -19 -62 -53 -89
-75 -26 -22 -62 -52 -79 -67 -17 -14 -65 -55 -106 -89 -41 -34 -77 -65 -80
-68 -3 -3 -75 -64 -160 -136 -172 -144 -184 -154 -220 -186 -14 -11 -58 -48
-98 -81 l-72 -61 0 -1126 0 -1127 143 -121 c151 -128 413 -349 801 -676 219
-185 302 -255 442 -374 93 -79 120 -101 294 -248 96 -81 189 -159 205 -174 17
-14 55 -46 85 -71 30 -25 57 -47 60 -50 3 -3 61 -53 129 -110 69 -58 217 -183
330 -279 294 -247 292 -246 302 -246 6 0 299 242 493 408 11 10 41 36 66 57
125 106 168 142 251 212 42 35 103 86 135 113 32 28 122 103 199 168 77 65
151 129 165 141 14 12 124 105 245 206 121 102 231 195 245 206 14 12 165 140
335 284 171 144 319 269 330 278 140 119 285 241 302 257 l23 19 0 1127 0
1127 -52 43 c-29 24 -71 59 -94 79 -22 19 -51 44 -65 55 -29 24 -293 248 -329
278 -14 12 -82 69 -150 127 -69 57 -130 109 -136 115 -6 5 -105 89 -219 185
-115 96 -243 204 -285 240 -42 36 -98 84 -126 106 -69 59 -908 767 -969 819
-27 23 -88 75 -135 115 -47 39 -94 79 -105 88 -11 10 -43 36 -72 60 -28 23
-52 42 -54 42 -2 0 -47 -37 -99 -81z"/>
</g>
</svg>
