<svg xmlns="http://www.w3.org/2000/svg" viewBox="0 0 512 512"><defs><style>.cls-1{fill:#fff;}</style></defs><g id="Letters"><polygon points="256 510.75 51.92 338.4 51.92 173.6 256 345.95 256 510.75"/><polygon points="256 510.75 460.08 338.4 460.08 173.6 256 345.95 256 510.75"/><polygon points="460.08 173.6 256 345.95 51.92 173.6 256 1.25 460.08 173.6"/><polygon class="cls-1" points="243.38 468.95 77.87 329.17 77.87 195.51 243.38 335.29 243.38 468.95"/><polygon class="cls-1" points="267.34 470.03 432.86 330.25 432.86 196.59 267.34 336.37 267.34 470.03"/><path class="cls-1" d="M90.49,173.6l77.9,65.79,77.9-65.79-77.9-65.79Zm101.75,6.1-16.63,14.05-31.08-26.26,16.63-14Z"/><polygon class="cls-1" points="343.61 107.81 421.51 173.6 388.7 201.31 357.8 175.21 345.53 185.58 376.43 211.68 343.61 239.39 265.71 173.6 298.52 145.88 325.19 168.4 337.46 158.04 310.8 135.52 343.61 107.81"/><polygon class="cls-1" points="256 33.82 303.57 73.99 294.95 132.5 225.66 139.78 178.1 99.61 210.75 72.03 258.31 112.2 270.92 101.56 223.35 61.39 256 33.82"/><polygon class="cls-1" points="236.87 226.6 245.35 233.76 281.43 203.29 333.89 247.6 256.03 313.36 239.07 299.03 280.86 263.75 267.43 252.41 225.64 287.69 178.13 247.56 255.99 181.81 272.95 196.13 236.87 226.6"/></g></svg>